<?xml version="1.0" standalone="no"?>
<!DOCTYPE svg PUBLIC "-//W3C//DTD SVG 20010904//EN"
 "http://www.w3.org/TR/2001/REC-SVG-20010904/DTD/svg10.dtd">
<svg version="1.0" xmlns="http://www.w3.org/2000/svg"
 width="1057.000000pt" height="1280.000000pt" viewBox="0 0 1057.000000 1280.000000"
 preserveAspectRatio="xMidYMid meet">
<metadata>
Created by potrace 1.15, written by Peter Selinger 2001-2017
</metadata>
<g transform="translate(0.000000,1280.000000) scale(0.100000,-0.100000)"
fill="#e1e3e5" stroke="none">
<path d="M4800 12794 c-397 -30 -827 -139 -1215 -308 -679 -297 -1424 -879
-2030 -1587 -936 -1093 -1235 -2388 -829 -3587 139 -413 380 -832 677 -1176
97 -113 5704 -5726 5720 -5726 6 0 82 34 167 76 l154 75 -1000 1002 c-5051
5064 -4806 4816 -4912 4959 -333 446 -560 1008 -627 1548 -19 160 -20 485 0
651 91 779 508 1569 1205 2283 598 613 1323 1100 1951 1312 161 54 264 76 519
110 173 23 242 28 440 28 273 0 431 -17 677 -75 451 -107 940 -349 1278 -632
56 -47 820 -805 1700 -1686 879 -880 1600 -1599 1602 -1598 9 10 -193 633
-227 698 -17 33 -2714 2733 -2820 2823 -515 437 -1122 706 -1790 791 -121 16
-522 27 -640 19z"/>
<path d="M7240 12401 c0 -10 10 -36 23 -59 13 -25 436 -459 1036 -1064 1439
-1451 1460 -1472 1467 -1465 8 8 -157 317 -261 490 -510 847 -1230 1560 -2004
1987 -63 34 -148 78 -188 96 -65 30 -73 32 -73 15z"/>
<path d="M4610 12114 c-465 -56 -838 -176 -1239 -399 -367 -204 -685 -450
-1037 -800 -616 -614 -963 -1247 -1080 -1972 -22 -133 -30 -517 -14 -670 39
-380 147 -746 326 -1105 138 -276 319 -553 476 -728 177 -197 1226 -1255 3496
-3523 l2189 -2189 139 94 c76 51 139 98 139 104 0 6 -1271 1284 -2824 2840
-1553 1556 -2859 2872 -2903 2924 -99 118 -272 377 -356 532 -162 299 -272
623 -329 963 -28 172 -25 565 5 738 87 485 330 982 719 1473 111 140 477 505
614 613 531 417 1045 652 1611 737 145 22 467 29 614 15 535 -54 1051 -274
1514 -648 95 -77 576 -553 1979 -1962 1019 -1024 1856 -1860 1858 -1857 10 9
-71 536 -86 562 -17 31 -3303 3321 -3411 3417 -514 452 -1037 702 -1714 818
-97 17 -173 22 -386 24 -146 2 -281 1 -300 -1z"/>
<path d="M4596 11259 c-226 -18 -477 -76 -686 -159 -431 -172 -867 -494 -1202
-887 -333 -392 -523 -798 -594 -1268 -25 -163 -25 -493 -1 -658 71 -482 263
-948 570 -1387 194 -277 197 -280 2263 -2355 1096 -1100 2303 -2310 2683
-2690 l691 -689 42 39 c126 117 198 191 198 205 0 8 -415 427 -922 930 -1370
1358 -3162 3151 -3513 3515 -719 746 -1126 1197 -1260 1400 -77 116 -195 349
-260 513 -174 444 -218 878 -129 1281 65 289 186 541 392 816 369 492 871 849
1385 985 214 56 282 64 537 64 255 0 331 -9 550 -64 344 -86 719 -268 1047
-507 164 -119 818 -760 2721 -2667 799 -801 1456 -1456 1459 -1456 3 0 3 108
2 240 l-4 239 -866 863 c-477 475 -1237 1238 -1690 1697 -453 459 -898 904
-989 989 -381 357 -618 527 -971 696 -430 205 -719 287 -1109 316 -150 11
-186 11 -344 -1z"/>
<path d="M4480 10209 c-230 -29 -481 -118 -665 -236 -537 -345 -774 -957 -634
-1638 81 -389 209 -594 734 -1170 205 -226 392 -442 941 -1090 536 -633 605
-714 712 -840 52 -60 836 -854 1743 -1762 l1648 -1653 107 136 106 135 -23 26
c-13 14 -984 984 -2157 2157 -1174 1172 -2221 2223 -2327 2336 -768 816 -1077
1302 -1154 1817 -16 102 -14 316 4 414 42 243 174 471 397 684 252 242 523
355 855 355 497 0 1022 -253 1652 -796 77 -67 971 -951 2073 -2052 1718 -1717
1937 -1933 1942 -1911 3 13 19 105 35 203 l30 179 -1221 1228 c-2754 2771
-3018 3012 -3573 3254 -286 126 -500 191 -720 220 -124 16 -394 18 -505 4z"/>
<path d="M4595 9276 c-248 -63 -435 -246 -489 -476 -38 -161 -11 -397 69 -600
155 -392 414 -765 895 -1290 305 -332 621 -652 2429 -2462 l1945 -1947 31 47
c42 62 145 241 145 252 0 4 -908 914 -2018 2021 -1110 1108 -2091 2095 -2181
2194 -588 647 -910 1124 -975 1447 -20 97 -20 138 -1 213 27 102 98 188 195
234 50 23 66 26 170 25 103 0 125 -4 210 -33 307 -105 661 -342 1155 -775 281
-246 481 -440 1140 -1105 1329 -1341 2880 -2890 2886 -2883 4 4 30 81 57 172
l50 165 -51 60 c-80 93 -3658 3674 -3782 3785 -580 518 -1136 865 -1524 951
-100 22 -279 24 -356 5z"/>
<path d="M148 7853 c-3 -10 -20 -123 -38 -249 l-33 -229 51 -101 c62 -123 143
-258 227 -380 140 -200 220 -273 289 -260 71 14 121 100 94 163 -7 18 -53 84
-103 148 -208 267 -369 580 -435 842 -6 22 -18 51 -29 64 -17 22 -18 22 -23 2z"/>
<path d="M26 7023 c-3 -25 -9 -96 -12 -157 l-7 -111 140 -135 c159 -154 276
-248 519 -414 207 -141 354 -257 524 -410 401 -363 760 -806 944 -1166 189
-369 262 -813 167 -1015 -56 -120 -128 -164 -280 -172 -171 -9 -316 31 -751
205 -302 120 -429 164 -565 193 -106 22 -230 26 -222 7 2 -7 14 -41 27 -75
l22 -62 57 -11 c103 -20 253 -71 553 -186 472 -180 638 -224 848 -224 195 0
305 40 427 154 114 106 157 230 156 451 -1 525 -327 1125 -973 1789 -210 216
-361 342 -755 631 -148 108 -313 231 -365 273 -137 109 -327 303 -389 397 -29
44 -54 81 -56 83 -1 1 -5 -19 -9 -45z"/>
<path d="M0 6419 l0 -140 56 -59 c96 -101 226 -208 423 -349 104 -75 234 -173
289 -219 135 -112 404 -389 477 -492 190 -266 228 -323 269 -400 85 -162 136
-369 136 -557 0 -172 -56 -238 -200 -237 -99 1 -175 23 -480 139 -138 53 -292
107 -343 121 -92 25 -277 44 -277 29 0 -5 10 -39 22 -77 21 -64 24 -68 52 -68
35 0 195 -54 466 -158 270 -103 342 -123 485 -129 143 -7 208 5 304 53 78 39
142 103 174 172 49 108 30 352 -43 573 -147 444 -514 881 -1115 1330 -393 294
-469 362 -559 503 -35 54 -66 90 -82 96 -54 21 -54 21 -54 -131z"/>
<path d="M25 5999 c-11 -17 6 -191 21 -220 20 -40 97 -105 277 -235 118 -86
197 -152 292 -248 269 -271 379 -466 392 -698 6 -94 5 -97 -20 -122 -40 -40
-57 -36 -297 54 -189 71 -299 100 -380 100 l-62 0 6 -34 c4 -19 13 -56 21 -83
l15 -49 47 0 c33 0 79 -12 143 -38 264 -105 283 -110 425 -111 145 0 187 12
257 74 61 53 82 109 81 215 -1 118 -22 196 -88 331 -123 251 -349 496 -676
731 -151 109 -227 178 -286 262 -25 35 -57 68 -70 73 -33 12 -90 11 -98 -2z"/>
<path d="M86 5421 c-3 -5 1 -49 9 -97 13 -76 19 -92 42 -109 77 -57 183 -171
183 -196 0 -5 -27 -6 -59 -3 -33 4 -70 4 -84 0 l-24 -6 16 -72 17 -72 79 -24
c230 -67 364 53 271 243 -31 63 -92 129 -249 268 -86 76 -88 77 -142 77 -29 0
-56 -4 -59 -9z"/>
<path d="M2708 4484 c-36 -19 -58 -63 -58 -113 0 -36 8 -48 83 -127 121 -129
927 -904 962 -925 62 -39 142 -10 179 64 37 76 39 73 -511 603 -272 264 -507
487 -522 496 -32 22 -96 23 -133 2z"/>
<path d="M2750 3949 c-19 -4 -47 -21 -62 -38 -23 -26 -28 -41 -28 -83 l0 -52
168 -169 c177 -179 226 -214 283 -202 71 16 121 94 100 158 -7 22 -71 92 -184
205 -95 95 -175 172 -178 172 -2 0 -18 4 -34 8 -17 5 -46 5 -65 1z"/>
<path d="M636 3472 c-5 -8 42 -124 107 -263 40 -88 33 -84 257 -139 172 -42
230 -47 267 -25 66 39 84 128 38 184 -29 34 -74 50 -220 81 -178 37 -249 65
-304 121 -44 44 -53 49 -94 49 -25 0 -48 -4 -51 -8z"/>
<path d="M2485 3243 c-206 -25 -388 -67 -580 -133 -144 -50 -208 -76 -560
-230 -148 -64 -287 -123 -307 -129 -21 -7 -40 -16 -42 -20 -5 -7 74 -153 94
-174 8 -9 231 83 495 203 399 183 609 244 970 285 243 28 410 13 710 -65 487
-125 1071 -413 1510 -743 340 -256 623 -564 758 -826 144 -279 234 -594 267
-941 13 -137 39 -357 45 -386 5 -21 6 -21 97 -8 51 7 97 13 101 14 5 0 6 12 3
27 -3 16 -19 152 -36 303 -37 333 -75 527 -140 723 -179 536 -554 985 -1165
1392 -591 395 -1216 648 -1737 704 -90 10 -414 13 -483 4z"/>
<path d="M2585 2820 c-311 -35 -409 -66 -954 -305 -135 -59 -281 -118 -325
-133 -45 -14 -83 -27 -84 -28 -5 -4 93 -148 111 -162 31 -26 156 17 397 138
349 175 563 249 814 280 125 16 439 8 560 -15 457 -84 946 -313 1398 -652 422
-318 675 -672 782 -1098 25 -97 44 -236 66 -464 21 -218 42 -347 60 -365 6 -6
41 -6 102 3 51 6 94 13 95 15 2 1 -1 25 -6 53 -6 27 -24 162 -41 299 -48 392
-81 551 -156 751 -155 415 -455 766 -924 1078 -468 313 -928 513 -1355 591
-106 19 -420 27 -540 14z"/>
<path d="M2700 2469 c-227 -22 -434 -84 -735 -222 -161 -74 -333 -140 -430
-167 -44 -12 -84 -26 -89 -30 -11 -10 114 -170 133 -170 30 0 200 64 367 139
320 142 453 191 624 228 116 25 444 25 571 0 200 -39 513 -161 742 -288 449
-249 762 -537 907 -834 103 -211 148 -383 175 -665 17 -166 60 -429 73 -442 4
-3 54 -10 111 -14 94 -6 104 -5 98 9 -14 37 -47 235 -72 427 -59 459 -126 679
-283 920 -186 287 -513 564 -931 789 -482 258 -872 358 -1261 320z"/>
<path d="M2775 2120 c-159 -16 -308 -63 -640 -205 -240 -102 -300 -123 -407
-147 l-57 -13 75 -82 c42 -46 83 -83 92 -83 45 0 229 69 467 175 198 88 299
121 431 141 344 51 789 -83 1204 -364 245 -166 416 -345 508 -533 71 -146 101
-275 142 -599 11 -91 30 -203 41 -251 l20 -85 105 -18 c58 -10 107 -16 110
-13 2 2 -7 46 -21 98 -34 131 -42 175 -60 354 -24 237 -39 303 -127 529 -33
83 -71 160 -110 217 -247 369 -849 749 -1363 860 -103 22 -293 31 -410 19z"/>
<path d="M2785 1790 c-96 -16 -162 -38 -295 -99 -203 -95 -459 -181 -536 -181
-46 0 -35 -23 47 -101 60 -55 92 -79 110 -79 36 0 134 35 344 123 260 109 322
128 445 136 194 14 362 -26 595 -139 317 -154 543 -355 645 -575 47 -100 64
-176 90 -385 12 -91 31 -205 43 -254 l22 -90 109 -23 c60 -13 111 -21 113 -19
3 2 -5 34 -16 71 -35 111 -51 192 -67 330 -24 211 -54 337 -114 471 -157 348
-668 707 -1140 799 -102 20 -312 28 -395 15z"/>
<path d="M2830 1407 c-47 -13 -153 -51 -236 -84 -177 -72 -251 -93 -329 -93
l-58 0 19 -21 c45 -50 193 -159 216 -159 41 0 126 29 263 91 147 66 231 89
326 89 185 0 480 -140 636 -303 110 -115 142 -192 172 -417 22 -166 33 -216
53 -242 11 -14 205 -78 236 -78 6 0 0 26 -13 58 -28 69 -56 189 -90 381 -39
220 -87 320 -213 447 -126 126 -327 249 -511 312 -99 33 -116 36 -246 39 -122
3 -151 0 -225 -20z"/>
<path d="M6105 1196 c-44 -19 -66 -49 -72 -96 -5 -33 7 -81 60 -243 36 -114
76 -263 91 -341 15 -76 45 -195 67 -262 40 -123 40 -124 67 -118 40 9 142 34
184 45 l37 9 -35 102 c-38 115 -76 267 -94 378 -14 81 -129 437 -155 477 -20
29 -73 63 -100 63 -11 -1 -33 -7 -50 -14z"/>
<path d="M3015 866 c-38 -13 -87 -26 -107 -30 -24 -4 -46 -18 -63 -38 l-27
-31 69 -43 c129 -82 124 -80 182 -55 48 20 53 21 88 6 56 -24 81 -52 89 -101
3 -24 11 -49 18 -57 6 -8 53 -34 105 -57 76 -34 95 -40 102 -29 16 23 5 87
-38 233 -29 99 -94 163 -206 205 -74 27 -125 26 -212 -3z"/>
</g>
</svg>
